PathFileType	4	(X/Y/Z)	44_1_25_p0_0-241.trc
DataRate	CameraRate	NumFrames	NumMarkers	Units	OrigDataRate	OrigDataStartFrame	OrigNumFrames
60.0	60.0	5	27	m	60.0	181	242
Frame#	Time	RHip			RKnee			RAnkle			RBigToe			RSmallToe			RHeel			LHip			LKnee			LAnkle			LBigToe			LSmallToe			LHeel			Neck			Head			Nose			RShoulder			RElbow			RWrist			RThumb			RIndex			RPinky			LShoulder			LElbow			LWrist			LThumb			LIndex			LPinky			
		X1	Y1	Z1	X2	Y2	Z2	X3	Y3	Z3	X4	Y4	Z4	X5	Y5	Z5	X6	Y6	Z6	X7	Y7	Z7	X8	Y8	Z8	X9	Y9	Z9	X10	Y10	Z10	X11	Y11	Z11	X12	Y12	Z12	X13	Y13	Z13	X14	Y14	Z14	X15	Y15	Z15	X16	Y16	Z16	X17	Y17	Z17	X18	Y18	Z18	X19	Y19	Z19	X20	Y20	Z20	X21	Y21	Z21	X22	Y22	Z22	X23	Y23	Z23	X24	Y24	Z24	X25	Y25	Z25	X26	Y26	Z26	X27	Y27	Z27	
181	3.0166666666666666	0.32843665403788613	0.37732364631967896	1.0229964135840897	0.3350625228729073	0.548914131053032	1.4523896900969722	0.30789054780665875	0.6498920027753995	1.8480619475036877	0.3159161751750067	0.5079962957664369	1.8984024780434532	0.37495714576506134	0.5402795471572734	1.9067213713927178	0.28882581344168634	0.7003510261288624	1.8886470153489385	0.12040526934052223	0.3704097086714721	1.0253524491170627	0.13097638461735187	0.5409285349874163	1.45413067740581	0.1498636830374737	0.6339851105203744	1.8398604268371013	0.13870870639271624	0.4539856961467812	1.8747713762623028	0.09244078621935647	0.5213931251126227	1.8881767069654394	0.16995643114693	0.695927842489639	1.9086084281042297	0.22173463266639196	0.39425809142847795	0.4345288778448582	0.22039748892124825	0.3269062109050847	0.16676846347301785	0.2122264595546731	0.25173318196515027	0.31886926129509324	0.3846929781628896	0.42164952065113503	0.521627215953732	0.44019009344896914	0.44239667878394906	0.7830684349356812	0.4428886736269139	0.3728043095804808	1.0255734021621152	0.35979908497115	0.33534198160910683	1.1248090591503632	0.37798642068200916	0.3660978416421279	1.180039371628387	0.4199898775250613	0.4248170235802866	1.186087573184427	0.047484183856997625	0.3801295272316533	0.5274425153153948	0.01620355767042255	0.40500468020765645	0.790803119319112	0.023629248834968246	0.38621968462282374	1.044958857513909	0.0958049832852964	0.36791886071834207	1.1387144801719717	0.07438587750660308	0.3930962908205807	1.162600921854098	0.034278421115397514	0.4084265119218938	1.1671693841933835
182	3.033333333333333	0.32848557786393234	0.3772821329467561	1.0231339707931644	0.33072767226097644	0.5368216913974377	1.4485110479136762	0.3077521700024494	0.6491972397821383	1.8478363620347849	0.3155662950408848	0.5067617815978827	1.8981050690322556	0.3780447774726486	0.5226192502771695	1.8945861449310082	0.2852109166843263	0.686773823767832	1.8823102384983308	0.12361908107198795	0.3821149444586492	1.0276971018380687	0.13012904931493938	0.5389785350790043	1.4486888093922006	0.14988785361691837	0.6339638962293985	1.840109956241112	0.1360379927416292	0.442397257375775	1.8691168845484254	0.09232774307817002	0.521452597846216	1.8883544821654514	0.16707739050772638	0.6828253646798591	1.902612864883396	0.21762786004516033	0.39298584985192775	0.43137604291703935	0.22045619500064922	0.32700550543601664	0.16673450893113262	0.21223263911348036	0.25190629556925503	0.3188387289198182	0.38086772833135923	0.41099286788167577	0.5213696239055767	0.4397893321669948	0.44311170605508493	0.7864873363604484	0.43913073324193735	0.3623176809990938	1.0234926345015205	0.3592066491967341	0.336732248447605	1.1280813933885878	0.37802253290529564	0.36639888854032593	1.1801692387932936	0.42420912168782576	0.4101216058129149	1.178509318493324	0.047490022739304916	0.3802229274033963	0.5274588957687757	0.016016367634217463	0.4053100148899938	0.7911278850670684	0.026619497562511838	0.39837390650654214	1.0475615410858543	0.09087538471012578	0.3808286313147257	1.1424001644750725	0.06931253393091968	0.40639447320243566	1.1661082407218744	0.03402669516976941	0.4083278263536472	1.167334161454368
183	3.05	0.32430267706599203	0.36737773527043927	1.0172031587075856	0.32957988567337876	0.5343849274078804	1.4437016263298041	0.30658525028674344	0.6461563997808676	1.8424739333190987	0.31423892995380204	0.5037039752521846	1.8939196829743954	0.3792735996537332	0.5263550579450292	1.897058035842009	0.2839376388301259	0.6829265136546341	1.8777552508466548	0.11992860250668191	0.3715105315863325	1.0216376624933912	0.13010491871260627	0.5386678471486367	1.4482649459384878	0.14898254483811477	0.6313869883656796	1.8345366606988645	0.13698956549110486	0.44007210334631397	1.8640806626570212	0.09236770634228214	0.5208853152436252	1.8884800056788833	0.16925029588155452	0.6934706083796498	1.9040604322236947	0.22139297581448703	0.3949753917920969	0.43120296182121787	0.22041748589532473	0.3268983776915054	0.16673029791132157	0.21218116016518368	0.25181570579307716	0.3188437038052358	0.37659190552808475	0.4085999526006954	0.5213059329869578	0.4399798049389118	0.44278431255262835	0.7861764155836247	0.4390150492009303	0.36201835352495126	1.0233940409579647	0.3591394610479132	0.3368318712732196	1.1282870457406908	0.373115843747956	0.35721956604151184	1.1775156858833398	0.4235981006554808	0.41078769580492136	1.1818728624924235	0.04746289166729703	0.38013562753404784	0.5274777435531338	0.010675839670698248	0.4177305403487103	0.7889876661683755	0.02356643578855172	0.3865412964318719	1.0450761113812366	0.082200008180156	0.3925186649554698	1.145884446762851	0.06479881689969454	0.4027806392094093	1.1611562669264126	0.0308386554192174	0.3967568004737756	1.1645912263463871
184	3.066666666666667	0.3247932492172886	0.36667669425722255	1.0131450815206224	0.33021009646283395	0.537669924014956	1.4448781149886631	0.3076675560928352	0.649193184208219	1.8477699519975261	0.31439740303476943	0.5043577671048051	1.8938112459542005	0.37846304401763814	0.5242076277417955	1.895562007989394	0.28504338946282326	0.6863919192939113	1.882292967243297	0.12301564113996212	0.3832744778627294	1.0239043269721424	0.12959237431256757	0.5403351306534006	1.4448503116686755	0.14891013245937235	0.631270021266365	1.8342495334468294	0.1355390761950109	0.4449006202741451	1.8646752672401108	0.08956276176115875	0.5089413317131447	1.8823508690913089	0.16998775608205452	0.6959059706244302	1.9084850738767187	0.2176271923887188	0.3931112959598577	0.431351023846613	0.22037299054931428	0.3268166020999	0.1668228366541768	0.21220337604896486	0.2516344521351107	0.31583486156045243	0.3765870078365946	0.40851379245722547	0.5212594370838871	0.4399735953702826	0.4428728314424131	0.7860915177032467	0.43911974572402585	0.36215793903466287	1.0237333696169613	0.35975310589539106	0.3393481676926483	1.132312556800284	0.37793397295329234	0.36596270167570355	1.187745930673725	0.4197860626775375	0.41115472757766397	1.1825580996105154	0.047438168745269765	0.38021639998267254	0.5275472013358071	0.016007577252741868	0.4059194074531475	0.7911075123808884	0.02402954654949166	0.3857115783702331	1.0484948051276841	0.08749830860362218	0.37833042073565265	1.145749432177745	0.06855459425378756	0.4048280741183704	1.1616188090839685	0.03371223054053591	0.4081284314381937	1.167564687331094
185	3.0833333333333335	0.3246889357661031	0.36666755314026656	1.0130395998370383	0.32914246771698036	0.5357763282051223	1.4402440809190291	0.3078638704850146	0.6496906780337806	1.8478426507114845	0.3156302609745194	0.5071571940395361	1.898068095998408	0.37743461875508844	0.5213112338346414	1.8936203721889513	0.2888956235505086	0.7001044791129231	1.8883086879199464	0.11975398069341109	0.37177078397563473	1.0216312833845962	0.12947827625454209	0.5403532190828716	1.4447637672834326	0.14894038916471092	0.6312238969103456	1.8343553030987845	0.13563106163850217	0.44533426566242756	1.864944678021869	0.08955654343763744	0.5090754331055439	1.8825643950182862	0.1692283158935267	0.6935526885301404	1.904001813357888	0.21759086310204173	0.39317499438176895	0.4313371616961754	0.22036335885391267	0.3268151334140597	0.16681379390382872	0.2121473749244746	0.2520022951289881	0.31890006369123103	0.3765261853352244	0.4086276828574218	0.5212631164936476	0.43983965248029344	0.44284847616647843	0.7861771870593396	0.43915372861626006	0.36199872514182824	1.0238490055772913	0.3585590185235816	0.33875088943410653	1.132259626452261	0.37785145728585484	0.36606495643625214	1.1877005366239388	0.4197676426637405	0.4110252047989577	1.1826127718148867	0.04745421462981259	0.38023896834531096	0.5275184023388643	0.010968628957601126	0.41940629960163595	0.7931904781156984	0.026583116787763195	0.3983966382937464	1.047567049253049	0.08759545812967799	0.37832719025427797	1.1457011508981685	0.06979327723343963	0.39000346573547584	1.1579022646313142	0.03384177337572471	0.40782120302548786	1.1673124987551737
